<svg xmlns="http://www.w3.org/2000/svg" xmlns:svg="http://www.w3.org/2000/svg" xmlns:xlink="http://www.w3.org/1999/xlink" version="1.0" height="577.1419799804687pt" width="952pt" viewBox="345 444.45 960 583.1419799804687" ><defs><style type="text/css">
            @font-face {
                font-family: 'noto_regular';
                src: url('https://app.creately.com/diagram/assets/fonts/noto/noto-regular.woff') format('woff'),
                     url('https://app.creately.com/diagram/assets/fonts/noto/noto-regular.woff2') format('woff2');
                font-weight: normal;
                font-style: normal;
            }
        p {
            margin: 0;
        }
        </style></defs><defs><style>
            span{ display: inline-block; }
        </style></defs><g id="9reehpwcw2"><g transform="translate(350 500)"><path d="M 1,1 L 203,1 L 203,41.7998046875 L 1,41.7998046875 Z" fill="rgb(255, 255, 255)" stroke="rgb(94, 92, 167)" stroke-width="1.5" stroke-linecap="round" stroke-linejoin="round"/><path d="M 101,41.7998046875 L 101,504.99908447265625" fill="rgb(255, 255, 255)" stroke="rgb(94, 92, 167)" stroke-width="1.5" stroke-linecap="round" stroke-linejoin="round" stroke-dasharray="10 7"/><path d="M 101,41.7998046875 L 101,504.99908447265625" fill="rgb(255, 255, 255)" stroke="rgb(0, 0, 0)" stroke-width="20" stroke-linecap="round" stroke-linejoin="round" stroke-dasharray="10 7"/></g><g transform="translate(403.5, 509.99998222277003) rotate(0, 0, 0)" width="86" height="19"><text text-decoration="none" x="0" fill="#000000" font-weight="bold" font-size="11pt" font-family="Arial"  y="17">Customer&#160;</text><text text-decoration="none" x="78" fill="#4b4b4b" font-size="10pt" font-family="noto_regular"  y="17"></text></g></g><g id="1z7lljqesm"><g transform="translate(600 500)"><path d="M 1,1 L 203,1 L 203,41.7998046875 L 1,41.7998046875 Z" fill="rgb(255, 255, 255)" stroke="rgb(94, 92, 167)" stroke-width="1.5" stroke-linecap="round" stroke-linejoin="round"/><path d="M 101,41.7998046875 L 101,514.55" fill="rgb(255, 255, 255)" stroke="rgb(94, 92, 167)" stroke-width="1.5" stroke-linecap="round" stroke-linejoin="round" stroke-dasharray="10 7"/><path d="M 101,41.7998046875 L 101,514.55" fill="rgb(255, 255, 255)" stroke="rgb(0, 0, 0)" stroke-width="20" stroke-linecap="round" stroke-linejoin="round" stroke-dasharray="10 7"/></g><g transform="translate(653.5, 509.99984712124416) rotate(0, 0, 0)" width="74" height="19"><text text-decoration="none" x="0" fill="#000000" font-weight="bold" font-size="11pt" font-family="Arial"  y="17">Account&#160;</text><text text-decoration="none" x="66" fill="#4b4b4b" font-size="10pt" font-family="noto_regular"  y="17"></text></g></g><g id="1nj9xw5xaq"><g transform="translate(850 500)"><path d="M 1,1 L 203,1 L 203,60.7998046875 L 1,60.7998046875 Z" fill="rgb(255, 255, 255)" stroke="rgb(94, 92, 167)" stroke-width="1.5" stroke-linecap="round" stroke-linejoin="round"/><path d="M 101,60.7998046875 L 101,509.65071750404667" fill="rgb(255, 255, 255)" stroke="rgb(94, 92, 167)" stroke-width="1.5" stroke-linecap="round" stroke-linejoin="round" stroke-dasharray="10 7"/><path d="M 101,60.7998046875 L 101,509.65071750404667" fill="rgb(255, 255, 255)" stroke="rgb(0, 0, 0)" stroke-width="20" stroke-linecap="round" stroke-linejoin="round" stroke-dasharray="10 7"/></g><g transform="translate(916.5, 510.0000138074482) rotate(0, 34.5, 0)" width="69" height="37"><text text-decoration="none" x="4.5" fill="#000000" font-weight="bold" font-size="11pt" font-family="Arial"  y="16">Product</text><text text-decoration="none" x="64.5" fill="#000000" font-weight="bold" font-size="11pt" font-family="Arial"  y="16"></text><text text-decoration="none" x="4" fill="#000000" font-weight="bold" font-size="11pt" font-family="Arial"  y="38">Catalog&#160;</text><text text-decoration="none" x="65" fill="#4b4b4b" font-size="10pt" font-family="noto_regular"  y="38"></text></g></g><g id="1vqyx81sff"><g transform="translate(1100 500)"><path d="M 1,1 L 203,1 L 203,41.7998046875 L 1,41.7998046875 Z" fill="rgb(255, 255, 255)" stroke="rgb(94, 92, 167)" stroke-width="1.5" stroke-linecap="round" stroke-linejoin="round"/><path d="M 101,41.7998046875 L 101,499.9945068359375" fill="rgb(255, 255, 255)" stroke="rgb(94, 92, 167)" stroke-width="1.5" stroke-linecap="round" stroke-linejoin="round" stroke-dasharray="10 7"/><path d="M 101,41.7998046875 L 101,499.9945068359375" fill="rgb(255, 255, 255)" stroke="rgb(0, 0, 0)" stroke-width="20" stroke-linecap="round" stroke-linejoin="round" stroke-dasharray="10 7"/></g><g transform="translate(1153.5, 509.99989229090073) rotate(0, 0, 0)" width="58" height="19"><text text-decoration="none" x="0" fill="#000000" font-weight="bold" font-size="11pt" font-family="Arial"  y="17">Billing&#160;</text><text text-decoration="none" x="52" fill="#4b4b4b" font-size="10pt" font-family="noto_regular"  y="17"></text></g></g><g id="2cuc587sr5"><g><path d="M 450,605 L 700,605" fill="none" stroke="#000000" stroke-width="1" stroke-linecap="round" stroke-linejoin="round"/><path d="M 700,605 L 691.304347826087,599.25 L 691.304347826087,610.75 Z" fill="rgb(0,0,0)" stroke="#000000" stroke-width="1" stroke-linecap="round" stroke-linejoin="round"/></g></g><g id="1jht1bjr51"><g transform="translate(485 580)"><rect x="0" y="0" width="150" height="27" fill="rgba(255,255,255,0.01)" stroke="rgba(255,255,255,0.01)" stroke-width="NaN" stroke-linecap="round" stroke-linejoin="round"/></g><g transform="translate(537.5, 584) rotate(0, 22.5, 9.5)" width="45" height="19"><text text-decoration="none" x="3.5" fill="rgb(0, 0, 0)" font-weight="bold" font-size="10pt" font-family="Arial"  y="17">Log&#160;</text><text text-decoration="none" x="28.5" fill="rgb(0, 0, 0)" font-weight="bold" font-size="10pt" font-family="Arial"  y="17">In</text><text text-decoration="none" x="41.5" fill="#4b4b4b" font-size="10pt" font-family="noto_regular"  y="17"></text></g></g><g id="21p975u2bx"><g><path d="M 700,650 L 450,650" fill="none" stroke="#000000" stroke-width="1" stroke-linecap="round" stroke-linejoin="round" stroke-dasharray="10 7"/><path d="M 450,650 L 456.95652173913044,656.4971751412429 M 450,650 L 456.95652173913044,643.5028248587571 Z" fill="rgb(255,255,255)" stroke="#000000" stroke-width="1" stroke-linecap="round" stroke-linejoin="round"/></g></g><g id="1jnmegj8ni"><g transform="translate(505 625)"><rect x="0" y="0" width="125.99999606609344" height="27" fill="rgba(255,255,255,0.01)" stroke="rgba(255,255,255,0.01)" stroke-width="NaN" stroke-linecap="round" stroke-linejoin="round"/></g><g transform="translate(518.9999980330467, 629) rotate(0, 49, 9.5)" width="98" height="19"><text text-decoration="none" x="3" fill="rgb(0, 0, 0)" font-weight="bold" font-size="10pt" font-family="Arial"  y="17">Authorization</text><text text-decoration="none" x="95" fill="#4b4b4b" font-size="10pt" font-family="noto_regular"  y="17"></text></g></g><g id="8l99hvqafl"><g><path d="M 452,699 L 950,700" fill="none" stroke="#000000" stroke-width="1" stroke-linecap="round" stroke-linejoin="round"/><path d="M 950,700 L 941.3159115187688,694.2325504787796 L 941.2928191958472,705.7325272937397 Z" fill="rgb(0,0,0)" stroke="#000000" stroke-width="1" stroke-linecap="round" stroke-linejoin="round"/></g></g><g id="9lntt6zk6q"><g transform="translate(740 655)"><rect x="0" y="0" width="150" height="33" fill="rgba(255,255,255,0.01)" stroke="rgba(255,255,255,0.01)" stroke-width="NaN" stroke-linecap="round" stroke-linejoin="round"/></g><g transform="translate(741, 662) rotate(0, 74, 9.5)" width="148" height="19"><text text-decoration="none" x="9" fill="rgb(0, 0, 0)" font-weight="bold" font-size="10pt" font-family="Arial"  y="17">Search&#160;</text><text text-decoration="none" x="57" fill="rgb(0, 0, 0)" font-weight="bold" font-size="10pt" font-family="Arial"  y="17">For&#160;</text><text text-decoration="none" x="81" fill="rgb(0, 0, 0)" font-weight="bold" font-size="10pt" font-family="Arial"  y="17">Products</text><text text-decoration="none" x="139" fill="#4b4b4b" font-size="10pt" font-family="noto_regular"  y="17"></text></g></g><g id="1ren109qbq"><g><path d="M 950,750 L 450,750" fill="none" stroke="#000000" stroke-width="1" stroke-linecap="round" stroke-linejoin="round" stroke-dasharray="10 7"/><path d="M 450,750 L 456.95652173913044,756.4971751412429 M 450,750 L 456.95652173913044,743.5028248587571 Z" fill="rgb(255,255,255)" stroke="#000000" stroke-width="1" stroke-linecap="round" stroke-linejoin="round"/></g></g><g id="os8nodbyq7"><g transform="translate(747 709)"><rect x="0" y="0" width="150" height="29" fill="rgba(255,255,255,0.01)" stroke="rgba(255,255,255,0.01)" stroke-width="NaN" stroke-linecap="round" stroke-linejoin="round"/></g><g transform="translate(769, 706) rotate(0, 53, 17.5)" width="106" height="35"><text text-decoration="none" x="6.5" fill="rgb(0, 0, 0)" font-weight="bold" font-size="10pt" font-family="Arial"  y="14">Search&#160;</text><text text-decoration="none" x="54.5" fill="rgb(0, 0, 0)" font-weight="bold" font-size="10pt" font-family="Arial"  y="14">Result&#160;</text><text text-decoration="none" x="99.5" fill="rgb(0, 0, 0)" font-weight="bold" font-size="10pt" font-family="Arial"  y="14"></text><text text-decoration="none" x="8.5" fill="rgb(0, 0, 0)" font-weight="bold" font-size="10pt" font-family="Arial"  y="36">(product&#160;</text><text text-decoration="none" x="67.5" fill="rgb(0, 0, 0)" font-weight="bold" font-size="10pt" font-family="Arial"  y="36">Info)</text><text text-decoration="none" x="97.5" fill="#4b4b4b" font-size="10pt" font-family="noto_regular"  y="36"></text></g></g><g id="6b7sdqf9bx"><g><path d="M 452,799 L 950,800" fill="none" stroke="#000000" stroke-width="1" stroke-linecap="round" stroke-linejoin="round"/><path d="M 950,800 L 941.3159115187688,794.2325504787796 L 941.2928191958472,805.7325272937397 Z" fill="rgb(0,0,0)" stroke="#000000" stroke-width="1" stroke-linecap="round" stroke-linejoin="round"/></g></g><g id="1vbi1hlmxa"><g transform="translate(745 775)"><rect x="0" y="0" width="150" height="33" fill="rgba(255,255,255,0.01)" stroke="rgba(255,255,255,0.01)" stroke-width="NaN" stroke-linecap="round" stroke-linejoin="round"/></g><g transform="translate(778, 782) rotate(0, 42, 9.5)" width="84" height="19"><text text-decoration="none" x="5.5" fill="rgb(0, 0, 0)" font-weight="bold" font-size="10pt" font-family="Arial"  y="17">Add&#160;</text><text text-decoration="none" x="33.5" fill="rgb(0, 0, 0)" font-weight="bold" font-size="10pt" font-family="Arial"  y="17">to&#160;</text><text text-decoration="none" x="50.5" fill="rgb(0, 0, 0)" font-weight="bold" font-size="10pt" font-family="Arial"  y="17">Cart</text><text text-decoration="none" x="78.5" fill="#4b4b4b" font-size="10pt" font-family="noto_regular"  y="17"></text></g></g><g id="6hvcbrdxs4"><g><path d="M 950,850 L 450,850" fill="none" stroke="#000000" stroke-width="1" stroke-linecap="round" stroke-linejoin="round" stroke-dasharray="10 7"/><path d="M 450,850 L 456.95652173913044,856.4971751412429 M 450,850 L 456.95652173913044,843.5028248587571 Z" fill="rgb(255,255,255)" stroke="#000000" stroke-width="1" stroke-linecap="round" stroke-linejoin="round"/></g></g><g id="3nog9irc45"><g transform="translate(745 825)"><rect x="0" y="0" width="150" height="39.30986022949219" fill="rgba(255,255,255,0.01)" stroke="rgba(255,255,255,0.01)" stroke-width="NaN" stroke-linecap="round" stroke-linejoin="round"/></g><g transform="translate(772.5, 827.1549301147461) rotate(0, 47.5, 17.5)" width="95" height="35"><text text-decoration="none" x="3.5" fill="rgb(17, 17, 17)" font-weight="bold" font-size="10pt" font-family="Arial"  y="14">Confirmation</text><text text-decoration="none" x="91.5" fill="rgb(17, 17, 17)" font-weight="bold" font-size="10pt" font-family="Arial"  y="14"></text><text text-decoration="none" x="47.5" fill="#4b4b4b" font-size="10pt" font-family="noto_regular"  y="36"></text></g></g><g id="19a8d7epfb"><g><path d="M 1205,900 L 450,900" fill="none" stroke="#000000" stroke-width="1" stroke-linecap="round" stroke-linejoin="round" stroke-dasharray="10 7"/><path d="M 450,900 L 456.95652173913044,906.4971751412429 M 450,900 L 456.95652173913044,893.5028248587571 Z" fill="rgb(255,255,255)" stroke="#000000" stroke-width="1" stroke-linecap="round" stroke-linejoin="round"/></g></g><g id="4qrhrgw0tm"><g transform="translate(1020 865)"><rect x="0" y="0" width="150" height="39.30986022949219" fill="rgba(255,255,255,0.01)" stroke="rgba(255,255,255,0.01)" stroke-width="NaN" stroke-linecap="round" stroke-linejoin="round"/></g><g transform="translate(1056, 875.1549301147461) rotate(0, 39, 9.5)" width="78" height="19"><text text-decoration="none" x="4" fill="rgb(0, 0, 0)" font-weight="bold" font-size="10pt" font-family="Arial"  y="17">Billing&#160;</text><text text-decoration="none" x="48" fill="rgb(0, 0, 0)" font-weight="bold" font-size="10pt" font-family="Arial"  y="17">Info</text><text text-decoration="none" x="74" fill="#4b4b4b" font-size="10pt" font-family="noto_regular"  y="17"></text></g></g><g id="2nsnhzwxbi"><g><path d="M 447,949 L 1200,950" fill="none" stroke="#000000" stroke-width="1" stroke-linecap="round" stroke-linejoin="round"/><path d="M 1200,950 L 1191.311991609523,944.2384570697877 L 1191.2967193786344,955.7384469288686 Z" fill="rgb(0,0,0)" stroke="#000000" stroke-width="1" stroke-linecap="round" stroke-linejoin="round"/></g></g><g id="1ev143nzqk"><g transform="translate(1000 920)"><rect x="0" y="0" width="150" height="39.30986022949219" fill="rgba(255,255,255,0.01)" stroke="rgba(255,255,255,0.01)" stroke-width="NaN" stroke-linecap="round" stroke-linejoin="round"/></g><g transform="translate(1038.5, 930.1549301147461) rotate(0, 36.5, 9.5)" width="73" height="19"><text text-decoration="none" x="4" fill="rgb(0, 0, 0)" font-weight="bold" font-size="10pt" font-family="Arial"  y="17">Payments</text><text text-decoration="none" x="69" fill="#4b4b4b" font-size="10pt" font-family="noto_regular"  y="17"></text></g></g><g id="1hjj7qu0st"><g transform="translate(425 565)"><path d="M 0.7419354915618896,1.3728184700012207 L 44.51612949371338,1.3728184700012207 L 44.51612949371338,411.8455410003662 L 0.7419354915618896,411.8455410003662 Z" fill="rgb(255, 255, 255)" stroke="rgb(94, 92, 167)" stroke-width="1.5" vector-effect="non-scaling-stroke"/></g></g><g id="29o0djo7pt"><g transform="translate(680 565)"><path d="M 0.7419354915618896,1.3728184700012207 L 44.51612949371338,1.3728184700012207 L 44.51612949371338,411.8455410003662 L 0.7419354915618896,411.8455410003662 Z" fill="rgb(255, 255, 255)" stroke="rgb(94, 92, 167)" stroke-width="1.5" vector-effect="non-scaling-stroke"/></g></g><g id="1qbpr9y0ib"><g transform="translate(930 676.6)"><path d="M 0.7419354915618896,0.9869043231010437 L 44.51612949371338,0.9869043231010437 L 44.51612949371338,296.0712969303131 L 0.7419354915618896,296.0712969303131 Z" fill="rgb(255, 255, 255)" stroke="rgb(94, 92, 167)" stroke-width="1.5" vector-effect="non-scaling-stroke"/></g></g><g id="60r9a58ygp"><g transform="translate(1175 862.35)"><path d="M 0.7419354915618896,0.35513123869895935 L 44.51612949371338,0.35513123869895935 L 44.51612949371338,106.5393716096878 L 0.7419354915618896,106.5393716096878 Z" fill="rgb(255, 255, 255)" stroke="rgb(94, 92, 167)" stroke-width="1.5" vector-effect="non-scaling-stroke"/></g></g><g id="246mxxnsm8"><g transform="translate(596.45 447.45)"><rect x="0" y="0" width="468.548583984375" height="78.08973524305556" fill="rgba(255,255,255,0.01)" stroke="rgba(255,255,255,0.01)" stroke-width="NaN" stroke-linecap="round" stroke-linejoin="round"/></g><g transform="translate(713.2242919921875, 464.49486762152776) rotate(0, 117.5, 22)" width="235" height="44"><text text-decoration="none" x="13" fill="rgb(17, 17, 17)" font-weight="bold" font-size="16pt" font-family="Arial"  y="23">Online&#160;</text><text text-decoration="none" x="87" fill="rgb(17, 17, 17)" font-weight="bold" font-size="16pt" font-family="Arial"  y="23">Tiffin&#160;</text><text text-decoration="none" x="147" fill="rgb(17, 17, 17)" font-weight="bold" font-size="16pt" font-family="Arial"  y="23">Service</text><text text-decoration="none" x="222" fill="rgb(17, 17, 17)" font-size="9pt" font-family="Arial"  y="23"></text><text text-decoration="none" x="117.5" fill="#4b4b4b" font-size="10pt" font-family="noto_regular"  y="46"></text></g></g></svg>