<svg data-v-423bf9ae="" xmlns="http://www.w3.org/2000/svg" viewBox="0 0 467 90" class="iconLeftSlogan"><!----><!----><defs data-v-423bf9ae=""><linearGradient data-v-423bf9ae="" gradientTransform="rotate(25)" id="ab86ab7b-6624-4c1b-a046-a26b2a43882a" x1="0%" y1="0%" x2="100%" y2="0%"><stop data-v-423bf9ae="" offset="0%" style="stop-color: rgb(231, 231, 231); stop-opacity: 1;"></stop><stop data-v-423bf9ae="" offset="100%" style="stop-color: rgb(145, 146, 78); stop-opacity: 1;"></stop></linearGradient></defs><g data-v-423bf9ae="" id="0755afd7-1e55-4abd-830e-bef9bad8ef13" fill="url(#ab86ab7b-6624-4c1b-a046-a26b2a43882a)" transform="matrix(5.115089713683056,0,0,5.115089713683056,100.98795377424864,-39.23273849419941)"><path d="M4.56 9.55L4.56 9.55Q4.30 9.90 4.17 10.20L4.17 10.20L4.17 10.20Q4.05 10.50 4.05 10.91L4.05 10.91L4.05 12.89L4.98 12.89L4.98 12.89Q6.20 12.89 6.96 12.32L6.96 12.32L7.20 12.57L7.20 12.57Q6.40 13.80 4.62 13.80L4.62 13.80L4.05 13.80L4.05 16.46L4.05 16.46Q4.05 17.44 3.60 18.14L3.60 18.14L3.60 18.14Q3.16 18.83 2.25 19.40L2.25 19.40L1.96 19.07L1.96 19.07Q2.31 18.69 2.31 17.71L2.31 17.71L2.31 13.80L1.04 13.80L1.74 12.89L2.31 12.89L2.31 11.72L2.31 11.72Q2.31 10.71 3.63 9.55L3.63 9.55L1.71 9.53L1.71 9.53Q0.81 9.53 0.08 10.39L0.08 10.39L-0.21 10.09L-0.21 10.09Q0.43 9.23 1.13 8.72L1.13 8.72L1.13 8.72Q1.82 8.22 2.72 8.22L2.72 8.22L6.06 8.22L6.06 8.22Q6.73 8.22 7.42 8.10L7.42 8.10L7.42 8.10Q8.11 7.98 8.47 7.67L8.47 7.67L8.68 7.92L8.68 7.92Q8.23 8.61 7.45 9.08L7.45 9.08L7.45 9.08Q6.66 9.55 5.73 9.55L5.73 9.55L4.56 9.55ZM13.22 7.91L13.22 7.91Q14.59 7.91 15.64 8.65L15.64 8.65L15.64 8.65Q16.69 9.39 17.26 10.59L17.26 10.59L17.26 10.59Q17.82 11.79 17.82 13.10L17.82 13.10L17.82 13.10Q17.82 14.46 17.29 15.65L17.29 15.65L17.29 15.65Q16.76 16.83 15.71 17.55L15.71 17.55L15.71 17.55Q14.67 18.27 13.22 18.27L13.22 18.27L13.22 18.27Q11.84 18.27 10.78 17.53L10.78 17.53L10.78 17.53Q9.72 16.79 9.14 15.60L9.14 15.60L9.14 15.60Q8.57 14.41 8.57 13.10L8.57 13.10L8.57 13.10Q8.57 11.75 9.11 10.56L9.11 10.56L9.11 10.56Q9.66 9.37 10.71 8.64L10.71 8.64L10.71 8.64Q11.76 7.91 13.22 7.91L13.22 7.91ZM12.70 8.69L12.70 8.69Q11.86 8.69 11.32 9.22L11.32 9.22L11.32 9.22Q10.78 9.74 10.54 10.54L10.54 10.54L10.54 10.54Q10.30 11.34 10.30 12.18L10.30 12.18L10.30 12.18Q10.30 13.40 10.66 14.61L10.66 14.61L10.66 14.61Q11.02 15.82 11.78 16.63L11.78 16.63L11.78 16.63Q12.54 17.44 13.71 17.44L13.71 17.44L13.71 17.44Q14.53 17.44 15.07 16.91L15.07 16.91L15.07 16.91Q15.61 16.37 15.85 15.56L15.85 15.56L15.85 15.56Q16.09 14.76 16.09 13.93L16.09 13.93L16.09 13.93Q16.09 12.75 15.73 11.54L15.73 11.54L15.73 11.54Q15.37 10.33 14.61 9.51L14.61 9.51L14.61 9.51Q13.85 8.69 12.70 8.69L12.70 8.69ZM23.45 7.91L23.45 7.91Q24.82 7.91 25.87 8.65L25.87 8.65L25.87 8.65Q26.92 9.39 27.49 10.59L27.49 10.59L27.49 10.59Q28.06 11.79 28.06 13.10L28.06 13.10L28.06 13.10Q28.06 14.46 27.52 15.65L27.52 15.65L27.52 15.65Q26.99 16.83 25.95 17.55L25.95 17.55L25.95 17.55Q24.91 18.27 23.45 18.27L23.45 18.27L23.45 18.27Q22.08 18.27 21.01 17.53L21.01 17.53L21.01 17.53Q19.95 16.79 19.38 15.60L19.38 15.60L19.38 15.60Q18.80 14.41 18.80 13.10L18.80 13.10L18.80 13.10Q18.80 11.75 19.35 10.56L19.35 10.56L19.35 10.56Q19.89 9.37 20.94 8.64L20.94 8.64L20.94 8.64Q21.99 7.91 23.45 7.91L23.45 7.91ZM22.93 8.69L22.93 8.69Q22.09 8.69 21.55 9.22L21.55 9.22L21.55 9.22Q21.01 9.74 20.78 10.54L20.78 10.54L20.78 10.54Q20.54 11.34 20.54 12.18L20.54 12.18L20.54 12.18Q20.54 13.40 20.90 14.61L20.90 14.61L20.90 14.61Q21.25 15.82 22.02 16.63L22.02 16.63L22.02 16.63Q22.78 17.44 23.94 17.44L23.94 17.44L23.94 17.44Q24.77 17.44 25.31 16.91L25.31 16.91L25.31 16.91Q25.84 16.37 26.08 15.56L26.08 15.56L26.08 15.56Q26.32 14.76 26.32 13.93L26.32 13.93L26.32 13.93Q26.32 12.75 25.96 11.54L25.96 11.54L25.96 11.54Q25.61 10.33 24.84 9.51L24.84 9.51L24.84 9.51Q24.08 8.69 22.93 8.69L22.93 8.69ZM33.82 7.91L33.82 7.91Q35.63 7.91 36.57 8.90L36.57 8.90L36.57 8.90Q37.51 9.90 37.51 11.62L37.51 11.62L37.51 11.62Q37.51 13.47 36.33 14.95L36.33 14.95L36.33 14.95Q35.15 16.44 33.34 17.30L33.34 17.30L33.34 17.30Q31.53 18.16 29.68 18.27L29.68 18.27L29.68 10.43L31.42 9.86L31.42 17.39L31.42 17.39Q32.66 17.01 33.61 16.21L33.61 16.21L33.61 16.21Q34.57 15.40 35.11 14.28L35.11 14.28L35.11 14.28Q35.64 13.16 35.64 11.84L35.64 11.84L35.64 11.84Q35.64 10.46 34.95 9.63L34.95 9.63L34.95 9.63Q34.26 8.81 33.04 8.81L33.04 8.81L33.04 8.81Q32.07 8.81 31.03 9.26L31.03 9.26L31.03 9.26Q29.99 9.72 29.15 10.43L29.15 10.43L28.80 10.02L28.80 10.02Q29.69 9.14 31.08 8.53L31.08 8.53L31.08 8.53Q32.47 7.91 33.82 7.91L33.82 7.91ZM40.77 7.83L40.77 17.78L39.02 18.34L39.02 8.37L40.77 7.83ZM46.48 9.55L46.48 9.55Q46.21 9.90 46.09 10.20L46.09 10.20L46.09 10.20Q45.96 10.50 45.96 10.91L45.96 10.91L45.96 12.89L46.90 12.89L46.90 12.89Q48.12 12.89 48.87 12.32L48.87 12.32L49.11 12.57L49.11 12.57Q48.31 13.80 46.54 13.80L46.54 13.80L45.96 13.80L45.96 16.46L45.96 16.46Q45.96 17.44 45.52 18.14L45.52 18.14L45.52 18.14Q45.08 18.83 44.17 19.40L44.17 19.40L43.88 19.07L43.88 19.07Q44.23 18.69 44.23 17.71L44.23 17.71L44.23 13.80L42.95 13.80L43.65 12.89L44.23 12.89L44.23 11.72L44.23 11.72Q44.23 10.71 45.54 9.55L45.54 9.55L43.62 9.53L43.62 9.53Q42.73 9.53 42.00 10.39L42.00 10.39L41.71 10.09L41.71 10.09Q42.35 9.23 43.04 8.72L43.04 8.72L43.04 8.72Q43.74 8.22 44.63 8.22L44.63 8.22L47.98 8.22L47.98 8.22Q48.65 8.22 49.34 8.10L49.34 8.10L49.34 8.10Q50.02 7.98 50.39 7.67L50.39 7.67L50.60 7.92L50.60 7.92Q50.15 8.61 49.36 9.08L49.36 9.08L49.36 9.08Q48.58 9.55 47.64 9.55L47.64 9.55L46.48 9.55ZM54.67 9.55L54.67 9.55Q54.40 9.90 54.28 10.20L54.28 10.20L54.28 10.20Q54.15 10.50 54.15 10.91L54.15 10.91L54.15 12.89L55.09 12.89L55.09 12.89Q56.31 12.89 57.06 12.32L57.06 12.32L57.30 12.57L57.30 12.57Q56.50 13.80 54.73 13.80L54.73 13.80L54.15 13.80L54.15 16.46L54.15 16.46Q54.15 17.44 53.71 18.14L53.71 18.14L53.71 18.14Q53.27 18.83 52.36 19.40L52.36 19.40L52.07 19.07L52.07 19.07Q52.42 18.69 52.42 17.71L52.42 17.71L52.42 13.80L51.14 13.80L51.84 12.89L52.42 12.89L52.42 11.72L52.42 11.72Q52.42 10.71 53.73 9.55L53.73 9.55L51.81 9.53L51.81 9.53Q50.92 9.53 50.19 10.39L50.19 10.39L49.90 10.09L49.90 10.09Q50.54 9.23 51.23 8.72L51.23 8.72L51.23 8.72Q51.93 8.22 52.82 8.22L52.82 8.22L56.17 8.22L56.17 8.22Q56.84 8.22 57.53 8.10L57.53 8.10L57.53 8.10Q58.21 7.98 58.58 7.67L58.58 7.67L58.79 7.92L58.79 7.92Q58.34 8.61 57.55 9.08L57.55 9.08L57.55 9.08Q56.77 9.55 55.83 9.55L55.83 9.55L54.67 9.55ZM61.17 7.83L61.17 17.78L59.42 18.34L59.42 8.37L61.17 7.83ZM63.43 8.37L65.18 7.80L65.18 10.25L65.18 10.25Q65.98 7.87 67.98 7.87L67.98 7.87L67.98 7.87Q68.87 7.87 69.33 8.45L69.33 8.45L69.33 8.45Q69.79 9.03 69.79 9.88L69.79 9.88L69.79 16.67L69.79 16.67Q69.79 16.97 69.92 17.16L69.92 17.16L69.92 17.16Q70.04 17.35 70.29 17.35L70.29 17.35L70.29 17.35Q70.52 17.35 70.73 17.21L70.73 17.21L70.73 17.21Q70.95 17.08 71.11 16.87L71.11 16.87L71.41 17.15L71.41 17.15Q71.12 17.63 70.69 17.91L70.69 17.91L70.69 17.91Q70.25 18.19 69.61 18.19L69.61 18.19L69.61 18.19Q68.87 18.19 68.45 17.72L68.45 17.72L68.45 17.72Q68.04 17.26 68.04 16.32L68.04 16.32L68.04 10.35L68.04 10.35Q68.04 9.60 67.90 9.14L67.90 9.14L67.90 9.14Q67.76 8.67 67.24 8.67L67.24 8.67L67.24 8.67Q66.57 8.67 66.11 9.39L66.11 9.39L66.11 9.39Q65.65 10.12 65.42 11.09L65.42 11.09L65.42 11.09Q65.18 12.05 65.18 12.70L65.18 12.70L65.18 17.74L63.43 18.33L63.43 8.37Z"></path></g><defs data-v-423bf9ae=""><linearGradient data-v-423bf9ae="" gradientTransform="rotate(25)" id="5c7a45e4-bb77-4059-b314-e5681fdf4d7a" x1="0%" y1="0%" x2="100%" y2="0%"><stop data-v-423bf9ae="" offset="0%" style="stop-color: rgb(169, 123, 120); stop-opacity: 1;"></stop><stop data-v-423bf9ae="" offset="100%" style="stop-color: rgb(127, 155, 160); stop-opacity: 1;"></stop></linearGradient></defs><g data-v-423bf9ae="" id="1e30e99f-8322-423f-a7c3-4e80b0e987bf" transform="matrix(1.9396554275585605,0,0,1.9396554275585605,-56.676733730808294,-51.27673064287518)" stroke="none" fill="url(#5c7a45e4-bb77-4059-b314-e5681fdf4d7a)"><path d="M69.9 59.4h-.6V35.6c0-1.7-1.4-3.1-3.1-3.1-.6 0-1.2.2-1.6.5-1.8-1.1-4.3-2.1-7.3-2.6-1.7-2.1-4.3-3.5-7.2-3.5-2.9 0-5.5 1.4-7.2 3.5-3 .6-5.6 1.5-7.3 2.6-.5-.3-1-.5-1.6-.5-1.7 0-3.1 1.4-3.1 3.1v23.8h-.6c-.4 0-.8.3-.8.8v2.4c0 .4.3.8.8.8H33v2.8c0 4 7.5 7.1 17.1 7.1 9.6 0 17.1-3.1 17.1-7.1v-2.8h2.7c.4 0 .8-.3.8-.8v-2.4c-.1-.5-.4-.8-.8-.8zM50 28.3c1.8 0 3.4.6 4.7 1.6-1.5-.2-3.1-.3-4.7-.3s-3.2.1-4.7.3c1.3-1 2.9-1.6 4.7-1.6zm-9.9 6.9c-.4 0-.8.3-.8.8s.3.8.8.8h3c.4 0 .8-.3.8-.8s-.3-.8-.8-.8h-.7c.1-1.3.6-2.5 1.3-3.5 1.9-.3 4-.5 6.3-.5s4.4.2 6.3.5c.7 1 1.1 2.2 1.3 3.5h-.7c-.4 0-.8.3-.8.8s.3.8.8.8h3c.4 0 .8-.3.8-.8s-.3-.8-.8-.8h-.8c-.1-1.1-.4-2.2-.8-3.1 2.2.5 3.9 1.2 5.2 2-.3.5-.4 1-.4 1.5V37c0 .4.3.8.8.8.4 0 .8-.3.8-.8v-1.5c0-.2 0-.4.1-.6.6.6 1 1.2 1 1.8 0 2.6-6.4 5.6-15.6 5.6s-15.6-2.9-15.6-5.6c0-.6.4-1.2 1-1.8.1.2.1.4.1.6V37c0 .4.3.8.8.8s.5-.3.5-.8v-1.5c0-.6-.2-1.1-.4-1.5 1.3-.8 3-1.5 5.2-2-.5 1-.7 2-.8 3.1h-.9zm-5.7 4.5c2.7 2.5 8.6 4.1 15.6 4.1 7.1 0 13-1.7 15.6-4.1v6.5c0 2.6-6.4 5.6-15.6 5.6s-15.6-2.9-15.6-5.6v-6.5zm0 9.4c2.7 2.5 8.6 4.1 15.6 4.1 7.1 0 13-1.7 15.6-4.1v7c0 2.6-6.4 5.6-15.6 5.6s-15.6-2.9-15.6-5.6v-7zm-1.8 12.7h-1.7v-.9h1.7v.9zm-.4-2.4V35.6c0-.9.7-1.6 1.6-1.6h.3c-.8.8-1.3 1.8-1.3 2.8v22.6h-.6zM50 71.7c-9.2 0-15.6-2.9-15.6-5.6V59c2.7 2.5 8.6 4.1 15.6 4.1 7.1 0 13-1.7 15.6-4.1v7.1c0 2.7-6.4 5.6-15.6 5.6zm17.1-34.9c0-1-.5-1.9-1.3-2.8h.3c.9 0 1.6.7 1.6 1.6v23.8h-.6V36.8zm2 25h-1.7v-.9h1.7v.9z"></path><path d="M38.2 38.2c-.2.4 0 .8.4 1 2.9 1.3 7 2 11.4 2 .4 0 .8-.3.8-.8s-.3-.8-.8-.8c-4.2 0-8.1-.7-10.8-1.9-.4 0-.8.1-1 .5zM48.5 69c-7.3 0-12.3-2.3-12.3-4.3 0-.4-.3-.7-.8-.7-.4 0-.8.3-.8.7 0 3.3 5.9 5.8 13.8 5.8.4 0 .8-.3.8-.8s-.3-.7-.7-.7zM50.2 69.2c-.1.2-.2.3-.2.5s.1.4.2.5c.1.1.3.2.5.2s.4-.1.5-.2c.1-.1.2-.3.2-.5s-.1-.4-.2-.5c-.2-.2-.7-.2-1 0zM52.2 41.3c.2 0 .4-.1.5-.2.1-.1.2-.3.2-.5s-.1-.4-.2-.5c-.3-.3-.8-.3-1.1 0-.1.1-.2.3-.2.5s.1.4.2.5c.3.1.5.2.6.2zM61.4 44.9c.2 0 .4-.1.5-.2.1-.1.2-.3.2-.5s-.1-.4-.2-.5c-.3-.3-.8-.3-1.1 0-.1.1-.2.3-.2.5s.1.4.2.5c.2.1.4.2.6.2zM63.8 43.6c.2 0 .4-.1.5-.2.1-.1.2-.3.2-.5s-.1-.4-.2-.5c-.3-.3-.8-.3-1.1 0-.1.1-.2.3-.2.5s.1.4.2.5c.2.1.4.2.6.2zM63.5 46.1c.2 0 .4-.1.5-.2.1-.1.2-.3.2-.5s-.1-.4-.2-.5c-.3-.3-.8-.3-1.1 0-.1.1-.2.3-.2.5s.1.4.2.5c.2.1.4.2.6.2z"></path></g><defs data-v-423bf9ae=""><linearGradient data-v-423bf9ae="" gradientTransform="rotate(25)" id="0ce26821-f5a9-4634-b679-5c1c4422ddf4" x1="0%" y1="0%" x2="100%" y2="0%"><stop data-v-423bf9ae="" offset="0%" style="stop-color: rgb(255, 255, 255); stop-opacity: 1;"></stop><stop data-v-423bf9ae="" offset="100%" style="stop-color: rgb(255, 250, 250); stop-opacity: 1;"></stop></linearGradient></defs><g data-v-423bf9ae="" id="61ebb6ec-3252-41ea-8d92-7f3db646ce86" fill="url(#0ce26821-f5a9-4634-b679-5c1c4422ddf4)" transform="matrix(1.0568468286559722,0,0,1.0568468286559722,99.55445433157871,54.13450154968364)"><path d="M1.55 6.36L0.34 6.18L0.39 5.89L6.58 5.89L6.36 8.09L6.02 8.04L5.88 6.24L2.26 6.24L2.26 10.07L4.53 10.07L4.80 9.11L5.18 9.06L4.97 11.72L4.59 11.77L4.47 10.43L2.26 10.43L2.26 13.92L3.94 14.03L3.86 14.40L0.37 14.40L0.39 14.11L1.55 13.90L1.55 6.36ZM15.07 9.75L15.07 9.75L15.07 9.75Q15.07 11.03 15.44 12.01L15.44 12.01L15.44 12.01Q15.80 13.00 16.52 13.57L16.52 13.57L16.52 13.57Q17.23 14.14 18.21 14.14L18.21 14.14L18.21 14.14Q18.79 14.14 19.28 13.92L19.28 13.92L19.28 13.92Q19.77 13.70 20.11 13.33L20.11 13.33L20.11 13.33Q20.46 12.96 20.70 12.49L20.70 12.49L20.70 12.49Q20.95 12.01 21.06 11.50L21.06 11.50L21.06 11.50Q21.18 10.99 21.18 10.48L21.18 10.48L21.18 10.48Q21.18 8.50 20.33 7.29L20.33 7.29L20.33 7.29Q19.48 6.07 18.03 6.07L18.03 6.07L18.03 6.07Q17.45 6.07 16.95 6.28L16.95 6.28L16.95 6.28Q16.46 6.49 16.12 6.85L16.12 6.85L16.12 6.85Q15.78 7.21 15.54 7.69L15.54 7.69L15.54 7.69Q15.30 8.16 15.19 8.69L15.19 8.69L15.19 8.69Q15.07 9.21 15.07 9.75ZM14.32 10.16L14.32 10.16L14.32 10.16Q14.32 8.16 15.42 6.92L15.42 6.92L15.42 6.92Q16.52 5.69 18.35 5.69L18.35 5.69L18.35 5.69Q19.49 5.69 20.31 6.27L20.31 6.27L20.31 6.27Q21.12 6.86 21.52 7.84L21.52 7.84L21.52 7.84Q21.92 8.83 21.92 10.11L21.92 10.11L21.92 10.11Q21.92 10.75 21.77 11.38L21.77 11.38L21.77 11.38Q21.62 12.00 21.29 12.58L21.29 12.58L21.29 12.58Q20.97 13.17 20.50 13.61L20.50 13.61L20.50 13.61Q20.04 14.05 19.37 14.32L19.37 14.32L19.37 14.32Q18.69 14.58 17.88 14.58L17.88 14.58L17.88 14.58Q16.83 14.58 16.01 13.98L16.01 13.98L16.01 13.98Q15.18 13.37 14.75 12.37L14.75 12.37L14.75 12.37Q14.32 11.37 14.32 10.16ZM31.46 6.18L31.46 10.11L33.01 10.11L33.01 10.11Q33.69 9.86 34.15 9.28L34.15 9.28L34.15 9.28Q34.61 8.70 34.61 8.02L34.61 8.02L34.61 8.02Q34.61 7.11 33.99 6.63L33.99 6.63L33.99 6.63Q33.37 6.15 32.29 6.15L32.29 6.15L31.46 6.18ZM32.83 14.40L29.64 14.40L29.69 14.11L30.75 13.90L30.75 6.51L29.66 6.37L29.72 6.13L29.72 6.13Q31.55 5.83 32.63 5.83L32.63 5.83L32.63 5.83Q33.39 5.83 34.00 6.05L34.00 6.05L34.00 6.05Q34.61 6.27 34.99 6.73L34.99 6.73L34.99 6.73Q35.36 7.19 35.36 7.83L35.36 7.83L35.36 7.83Q35.36 8.57 34.94 9.14L34.94 9.14L34.94 9.14Q34.51 9.72 33.48 10.23L33.48 10.23L33.48 10.23L34.79 12.19L34.79 12.19Q35.51 13.23 35.85 13.58L35.85 13.58L35.85 13.58Q36.20 13.92 36.58 14.05L36.58 14.05L36.91 14.16L36.87 14.42L36.87 14.42Q36.57 14.52 36.23 14.52L36.23 14.52L36.23 14.52Q35.94 14.52 35.69 14.40L35.69 14.40L35.69 14.40Q35.44 14.28 35.19 14.01L35.19 14.01L35.19 14.01Q34.95 13.75 34.77 13.48L34.77 13.48L34.77 13.48Q34.58 13.22 34.31 12.77L34.31 12.77L32.92 10.49L31.46 10.49L31.46 13.95L32.90 14.08L32.83 14.40ZM54.57 8.09L54.50 5.89L61.56 5.89L61.33 8.16L60.98 8.12L60.87 6.24L58.33 6.24L58.33 13.90L59.54 14.08L59.47 14.40L56.37 14.40L56.40 14.11L57.60 13.90L57.60 6.24L55.17 6.24L54.93 8.15L54.57 8.09ZM70.50 6.33L69.27 6.16L69.29 5.89L72.41 5.89L72.37 6.16L71.22 6.32L71.22 9.95L76.13 9.95L76.13 6.33L74.87 6.16L74.92 5.89L78.03 5.89L77.97 6.16L76.83 6.32L76.83 13.95L78.08 14.08L78.03 14.40L74.94 14.40L74.99 14.11L76.13 13.90L76.13 10.36L71.22 10.36L71.22 13.95L72.49 14.08L72.41 14.40L69.32 14.40L69.36 14.11L70.50 13.90L70.50 6.33ZM87.01 6.36L85.79 6.18L85.84 5.89L92.03 5.89L91.82 8.07L91.51 8.03L91.38 6.24L87.73 6.24L87.73 9.89L90.02 9.89L90.27 8.94L90.64 8.89L90.41 11.55L90.06 11.61L89.95 10.26L87.73 10.26L87.73 14.03L91.57 14.03L92.07 12.19L92.35 12.26L92.15 14.40L85.81 14.40L85.85 14.11L87.01 13.90L87.01 6.36ZM111.22 6.36L109.96 6.14L110.01 5.89L112.08 5.89L116.81 13.17L116.81 6.33L115.55 6.16L115.60 5.89L118.49 5.89L118.44 6.16L117.30 6.32L117.30 14.44L116.94 14.52L111.73 6.65L111.73 13.95L112.98 14.08L112.92 14.40L110.04 14.40L110.08 14.11L111.22 13.90L111.22 6.36ZM126.96 9.75L126.96 9.75L126.96 9.75Q126.96 11.03 127.32 12.01L127.32 12.01L127.32 12.01Q127.68 13.00 128.40 13.57L128.40 13.57L128.40 13.57Q129.12 14.14 130.09 14.14L130.09 14.14L130.09 14.14Q130.67 14.14 131.16 13.92L131.16 13.92L131.16 13.92Q131.65 13.70 132.00 13.33L132.00 13.33L132.00 13.33Q132.34 12.96 132.59 12.49L132.59 12.49L132.59 12.49Q132.83 12.01 132.95 11.50L132.95 11.50L132.95 11.50Q133.06 10.99 133.06 10.48L133.06 10.48L133.06 10.48Q133.06 8.50 132.21 7.29L132.21 7.29L132.21 7.29Q131.36 6.07 129.91 6.07L129.91 6.07L129.91 6.07Q129.33 6.07 128.84 6.28L128.84 6.28L128.84 6.28Q128.34 6.49 128.00 6.85L128.00 6.85L128.00 6.85Q127.66 7.21 127.42 7.69L127.42 7.69L127.42 7.69Q127.18 8.16 127.07 8.69L127.07 8.69L127.07 8.69Q126.96 9.21 126.96 9.75ZM126.21 10.16L126.21 10.16L126.21 10.16Q126.21 8.16 127.30 6.92L127.30 6.92L127.30 6.92Q128.40 5.69 130.24 5.69L130.24 5.69L130.24 5.69Q131.37 5.69 132.19 6.27L132.19 6.27L132.19 6.27Q133.01 6.86 133.40 7.84L133.40 7.84L133.40 7.84Q133.80 8.83 133.80 10.11L133.80 10.11L133.80 10.11Q133.80 10.75 133.65 11.38L133.65 11.38L133.65 11.38Q133.50 12.00 133.17 12.58L133.17 12.58L133.17 12.58Q132.85 13.17 132.39 13.61L132.39 13.61L132.39 13.61Q131.93 14.05 131.25 14.32L131.25 14.32L131.25 14.32Q130.57 14.58 129.77 14.58L129.77 14.58L129.77 14.58Q128.71 14.58 127.89 13.98L127.89 13.98L127.89 13.98Q127.07 13.37 126.64 12.37L126.64 12.37L126.64 12.37Q126.21 11.37 126.21 10.16ZM151.46 10.25L151.46 10.25L151.46 10.25Q151.46 9.73 151.57 9.21L151.57 9.21L151.57 9.21Q151.68 8.68 151.88 8.17L151.88 8.17L151.88 8.17Q152.08 7.66 152.41 7.22L152.41 7.22L152.41 7.22Q152.74 6.77 153.15 6.44L153.15 6.44L153.15 6.44Q153.56 6.10 154.12 5.90L154.12 5.90L154.12 5.90Q154.68 5.71 155.31 5.71L155.31 5.71L155.31 5.71Q156.73 5.71 157.64 6.39L157.64 6.39L157.42 8.70L157.10 8.64L156.90 6.87L156.90 6.87Q156.30 6.09 154.99 6.09L154.99 6.09L154.99 6.09Q153.84 6.09 153.02 7.19L153.02 7.19L153.02 7.19Q152.19 8.30 152.19 10.00L152.19 10.00L152.19 10.00Q152.19 11.92 152.99 12.97L152.99 12.97L152.99 12.97Q153.79 14.03 155.27 14.03L155.27 14.03L155.27 14.03Q156.00 14.03 156.69 13.65L156.69 13.65L156.69 13.65Q157.38 13.28 157.86 12.74L157.86 12.74L158.01 12.99L158.01 12.99Q157.84 13.25 157.55 13.51L157.55 13.51L157.55 13.51Q157.27 13.77 156.88 14.02L156.88 14.02L156.88 14.02Q156.50 14.27 155.99 14.42L155.99 14.42L155.99 14.42Q155.48 14.57 154.96 14.57L154.96 14.57L154.96 14.57Q153.38 14.57 152.42 13.40L152.42 13.40L152.42 13.40Q151.46 12.22 151.46 10.25ZM166.47 9.75L166.47 9.75L166.47 9.75Q166.47 11.03 166.83 12.01L166.83 12.01L166.83 12.01Q167.19 13.00 167.91 13.57L167.91 13.57L167.91 13.57Q168.63 14.14 169.61 14.14L169.61 14.14L169.61 14.14Q170.18 14.14 170.67 13.92L170.67 13.92L170.67 13.92Q171.17 13.70 171.51 13.33L171.51 13.33L171.51 13.33Q171.86 12.96 172.10 12.49L172.10 12.49L172.10 12.49Q172.34 12.01 172.46 11.50L172.46 11.50L172.46 11.50Q172.57 10.99 172.57 10.48L172.57 10.48L172.57 10.48Q172.57 8.50 171.72 7.29L171.72 7.29L171.72 7.29Q170.87 6.07 169.42 6.07L169.42 6.07L169.42 6.07Q168.84 6.07 168.35 6.28L168.35 6.28L168.35 6.28Q167.86 6.49 167.51 6.85L167.51 6.85L167.51 6.85Q167.17 7.21 166.93 7.69L166.93 7.69L166.93 7.69Q166.69 8.16 166.58 8.69L166.58 8.69L166.58 8.69Q166.47 9.21 166.47 9.75ZM165.72 10.16L165.72 10.16L165.72 10.16Q165.72 8.16 166.81 6.92L166.81 6.92L166.81 6.92Q167.91 5.69 169.75 5.69L169.75 5.69L169.75 5.69Q170.88 5.69 171.70 6.27L171.70 6.27L171.70 6.27Q172.52 6.86 172.92 7.84L172.92 7.84L172.92 7.84Q173.31 8.83 173.31 10.11L173.31 10.11L173.31 10.11Q173.31 10.75 173.16 11.38L173.16 11.38L173.16 11.38Q173.01 12.00 172.69 12.58L172.69 12.58L172.69 12.58Q172.36 13.17 171.90 13.61L171.90 13.61L171.90 13.61Q171.44 14.05 170.76 14.32L170.76 14.32L170.76 14.32Q170.08 14.58 169.28 14.58L169.28 14.58L169.28 14.58Q168.23 14.58 167.40 13.98L167.40 13.98L167.40 13.98Q166.58 13.37 166.15 12.37L166.15 12.37L166.15 12.37Q165.72 11.37 165.72 10.16ZM181.82 9.75L181.82 9.75L181.82 9.75Q181.82 11.03 182.18 12.01L182.18 12.01L182.18 12.01Q182.54 13.00 183.26 13.57L183.26 13.57L183.26 13.57Q183.98 14.14 184.95 14.14L184.95 14.14L184.95 14.14Q185.53 14.14 186.02 13.92L186.02 13.92L186.02 13.92Q186.51 13.70 186.86 13.33L186.86 13.33L186.86 13.33Q187.20 12.96 187.44 12.49L187.44 12.49L187.44 12.49Q187.69 12.01 187.80 11.50L187.80 11.50L187.80 11.50Q187.92 10.99 187.92 10.48L187.92 10.48L187.92 10.48Q187.92 8.50 187.07 7.29L187.07 7.29L187.07 7.29Q186.22 6.07 184.77 6.07L184.77 6.07L184.77 6.07Q184.19 6.07 183.70 6.28L183.70 6.28L183.70 6.28Q183.20 6.49 182.86 6.85L182.86 6.85L182.86 6.85Q182.52 7.21 182.28 7.69L182.28 7.69L182.28 7.69Q182.04 8.16 181.93 8.69L181.93 8.69L181.93 8.69Q181.82 9.21 181.82 9.75ZM181.06 10.16L181.06 10.16L181.06 10.16Q181.06 8.16 182.16 6.92L182.16 6.92L182.16 6.92Q183.26 5.69 185.10 5.69L185.10 5.69L185.10 5.69Q186.23 5.69 187.05 6.27L187.05 6.27L187.05 6.27Q187.87 6.86 188.26 7.84L188.26 7.84L188.26 7.84Q188.66 8.83 188.66 10.11L188.66 10.11L188.66 10.11Q188.66 10.75 188.51 11.38L188.51 11.38L188.51 11.38Q188.36 12.00 188.03 12.58L188.03 12.58L188.03 12.58Q187.71 13.17 187.25 13.61L187.25 13.61L187.25 13.61Q186.79 14.05 186.11 14.32L186.11 14.32L186.11 14.32Q185.43 14.58 184.63 14.58L184.63 14.58L184.63 14.58Q183.57 14.58 182.75 13.98L182.75 13.98L182.75 13.98Q181.92 13.37 181.49 12.37L181.49 12.37L181.49 12.37Q181.06 11.37 181.06 10.16ZM198.67 10.27L198.66 10.17L198.66 10.17Q199.30 9.47 199.66 9.04L199.66 9.04L201.93 6.33L200.74 6.16L200.77 5.89L203.55 5.89L203.53 6.16L202.49 6.32L199.37 10.10L201.16 12.20L201.16 12.20Q201.95 13.13 202.46 13.54L202.46 13.54L202.46 13.54Q202.96 13.94 203.54 14.03L203.54 14.03L203.91 14.08L203.83 14.38L203.83 14.38Q203.83 14.38 203.70 14.42L203.70 14.42L203.70 14.42Q203.56 14.46 203.51 14.48L203.51 14.48L203.51 14.48Q203.46 14.50 203.39 14.52L203.39 14.52L203.39 14.52Q203.32 14.53 203.25 14.54L203.25 14.54L203.25 14.54Q203.18 14.55 203.10 14.55L203.10 14.55L203.10 14.55Q202.77 14.55 202.48 14.43L202.48 14.43L202.48 14.43Q202.18 14.31 201.87 14.03L201.87 14.03L201.87 14.03Q201.55 13.75 201.34 13.51L201.34 13.51L201.34 13.51Q201.12 13.28 200.74 12.82L200.74 12.82L198.67 10.27ZM197.55 6.33L196.37 6.16L196.40 5.89L199.47 5.89L199.45 6.16L198.29 6.32L198.29 13.95L199.56 14.08L199.49 14.40L196.44 14.40L196.48 14.11L197.55 13.90L197.55 6.33ZM223.43 6.19L223.43 14.03L224.66 14.03L224.66 14.03Q226.46 14.03 227.56 12.95L227.56 12.95L227.56 12.95Q228.66 11.87 228.66 10.12L228.66 10.12L228.66 10.12Q228.66 8.20 227.60 7.18L227.60 7.18L227.60 7.18Q226.55 6.16 224.62 6.16L224.62 6.16L224.62 6.16Q223.62 6.16 223.43 6.19L223.43 6.19ZM224.47 14.40L221.53 14.40L221.58 14.11L222.74 13.90L222.74 6.51L221.56 6.36L221.63 6.12L221.63 6.12Q223.71 5.79 224.87 5.79L224.87 5.79L224.87 5.79Q225.83 5.79 226.61 6.03L226.61 6.03L226.61 6.03Q227.38 6.26 227.90 6.66L227.90 6.66L227.90 6.66Q228.41 7.05 228.75 7.59L228.75 7.59L228.75 7.59Q229.09 8.13 229.24 8.71L229.24 8.71L229.24 8.71Q229.39 9.29 229.39 9.92L229.39 9.92L229.39 9.92Q229.39 10.64 229.22 11.28L229.22 11.28L229.22 11.28Q229.05 11.93 228.67 12.50L228.67 12.50L228.67 12.50Q228.29 13.08 227.72 13.49L227.72 13.49L227.72 13.49Q227.16 13.91 226.33 14.15L226.33 14.15L226.33 14.15Q225.50 14.40 224.47 14.40L224.47 14.40ZM241.17 6.98L239.80 10.75L242.49 10.75L241.17 6.98ZM239.85 14.40L237.13 14.40L237.16 14.11L238.13 13.90L241.12 5.82L241.49 5.73L244.32 13.95L245.23 14.08L245.17 14.39L242.38 14.39L242.44 14.10L243.57 13.90L242.62 11.13L239.67 11.13L238.66 13.95L239.91 14.08L239.85 14.40ZM253.85 6.35L252.90 6.15L252.93 5.90L255.78 5.90L255.75 6.15L254.62 6.32L256.76 10.49L258.88 6.34L257.61 6.14L257.63 5.89L260.29 5.89L260.27 6.14L259.39 6.32L257.00 11.05L257.00 13.94L258.24 14.08L258.19 14.40L255.04 14.40L255.08 14.11L256.28 13.90L256.28 11.05L253.85 6.35ZM268.12 5.83L268.12 5.83L268.12 5.83Q268.12 5.70 268.26 5.63L268.26 5.63L268.26 5.63Q268.39 5.55 268.59 5.55L268.59 5.55L268.59 5.55Q268.95 5.55 268.95 5.83L268.95 5.83L268.95 5.83Q268.95 7.93 268.62 11.94L268.62 11.94L268.32 11.87L268.32 11.87Q268.12 7.66 268.12 5.83ZM268.08 13.95L268.08 13.95L268.08 13.95Q268.08 13.67 268.19 13.49L268.19 13.49L268.19 13.49Q268.30 13.31 268.47 13.31L268.47 13.31L268.47 13.31Q268.65 13.31 268.77 13.49L268.77 13.49L268.77 13.49Q268.88 13.67 268.88 13.95L268.88 13.95L268.88 13.95Q268.88 14.62 268.47 14.62L268.47 14.62L268.47 14.62Q268.08 14.62 268.08 13.95ZM276.81 5.83L276.81 5.83L276.81 5.83Q276.81 5.70 276.95 5.63L276.95 5.63L276.95 5.63Q277.09 5.55 277.29 5.55L277.29 5.55L277.29 5.55Q277.65 5.55 277.65 5.83L277.65 5.83L277.65 5.83Q277.65 7.93 277.31 11.94L277.31 11.94L277.01 11.87L277.01 11.87Q276.81 7.66 276.81 5.83ZM276.77 13.95L276.77 13.95L276.77 13.95Q276.77 13.67 276.88 13.49L276.88 13.49L276.88 13.49Q276.99 13.31 277.16 13.31L277.16 13.31L277.16 13.31Q277.35 13.31 277.46 13.49L277.46 13.49L277.46 13.49Q277.57 13.67 277.57 13.95L277.57 13.95L277.57 13.95Q277.57 14.62 277.17 14.62L277.17 14.62L277.17 14.62Q276.77 14.62 276.77 13.95Z"></path></g></svg>