<svg data-v-423bf9ae="" xmlns="http://www.w3.org/2000/svg" viewBox="0 0 366.342739342994 60" class="font"><!----><!----><!----><g data-v-423bf9ae="" id="881fa8d3-8eaa-4c99-a6a2-4625f51d9228" fill="white" transform="matrix(5.115089713683056,0,0,5.115089713683056,1.0741659324517627,-39.23273849419941)"><path d="M4.56 9.55L4.56 9.55Q4.30 9.90 4.17 10.20L4.17 10.20L4.17 10.20Q4.05 10.50 4.05 10.91L4.05 10.91L4.05 12.89L4.98 12.89L4.98 12.89Q6.20 12.89 6.96 12.32L6.96 12.32L7.20 12.57L7.20 12.57Q6.40 13.80 4.62 13.80L4.62 13.80L4.05 13.80L4.05 16.46L4.05 16.46Q4.05 17.44 3.60 18.14L3.60 18.14L3.60 18.14Q3.16 18.83 2.25 19.40L2.25 19.40L1.96 19.07L1.96 19.07Q2.31 18.69 2.31 17.71L2.31 17.71L2.31 13.80L1.04 13.80L1.74 12.89L2.31 12.89L2.31 11.72L2.31 11.72Q2.31 10.71 3.63 9.55L3.63 9.55L1.71 9.53L1.71 9.53Q0.81 9.53 0.08 10.39L0.08 10.39L-0.21 10.09L-0.21 10.09Q0.43 9.23 1.13 8.72L1.13 8.72L1.13 8.72Q1.82 8.22 2.72 8.22L2.72 8.22L6.06 8.22L6.06 8.22Q6.73 8.22 7.42 8.10L7.42 8.10L7.42 8.10Q8.11 7.98 8.47 7.67L8.47 7.67L8.68 7.92L8.68 7.92Q8.23 8.61 7.45 9.08L7.45 9.08L7.45 9.08Q6.66 9.55 5.73 9.55L5.73 9.55L4.56 9.55ZM13.22 7.91L13.22 7.91Q14.59 7.91 15.64 8.65L15.64 8.65L15.64 8.65Q16.69 9.39 17.26 10.59L17.26 10.59L17.26 10.59Q17.82 11.79 17.82 13.10L17.82 13.10L17.82 13.10Q17.82 14.46 17.29 15.65L17.29 15.65L17.29 15.65Q16.76 16.83 15.71 17.55L15.71 17.55L15.71 17.55Q14.67 18.27 13.22 18.27L13.22 18.27L13.22 18.27Q11.84 18.27 10.78 17.53L10.78 17.53L10.78 17.53Q9.72 16.79 9.14 15.60L9.14 15.60L9.14 15.60Q8.57 14.41 8.57 13.10L8.57 13.10L8.57 13.10Q8.57 11.75 9.11 10.56L9.11 10.56L9.11 10.56Q9.66 9.37 10.71 8.64L10.71 8.64L10.71 8.64Q11.76 7.91 13.22 7.91L13.22 7.91ZM12.70 8.69L12.70 8.69Q11.86 8.69 11.32 9.22L11.32 9.22L11.32 9.22Q10.78 9.74 10.54 10.54L10.54 10.54L10.54 10.54Q10.30 11.34 10.30 12.18L10.30 12.18L10.30 12.18Q10.30 13.40 10.66 14.61L10.66 14.61L10.66 14.61Q11.02 15.82 11.78 16.63L11.78 16.63L11.78 16.63Q12.54 17.44 13.71 17.44L13.71 17.44L13.71 17.44Q14.53 17.44 15.07 16.91L15.07 16.91L15.07 16.91Q15.61 16.37 15.85 15.56L15.85 15.56L15.85 15.56Q16.09 14.76 16.09 13.93L16.09 13.93L16.09 13.93Q16.09 12.75 15.73 11.54L15.73 11.54L15.73 11.54Q15.37 10.33 14.61 9.51L14.61 9.51L14.61 9.51Q13.85 8.69 12.70 8.69L12.70 8.69ZM23.45 7.91L23.45 7.91Q24.82 7.91 25.87 8.65L25.87 8.65L25.87 8.65Q26.92 9.39 27.49 10.59L27.49 10.59L27.49 10.59Q28.06 11.79 28.06 13.10L28.06 13.10L28.06 13.10Q28.06 14.46 27.52 15.65L27.52 15.65L27.52 15.65Q26.99 16.83 25.95 17.55L25.95 17.55L25.95 17.55Q24.91 18.27 23.45 18.27L23.45 18.27L23.45 18.27Q22.08 18.27 21.01 17.53L21.01 17.53L21.01 17.53Q19.95 16.79 19.38 15.60L19.38 15.60L19.38 15.60Q18.80 14.41 18.80 13.10L18.80 13.10L18.80 13.10Q18.80 11.75 19.35 10.56L19.35 10.56L19.35 10.56Q19.89 9.37 20.94 8.64L20.94 8.64L20.94 8.64Q21.99 7.91 23.45 7.91L23.45 7.91ZM22.93 8.69L22.93 8.69Q22.09 8.69 21.55 9.22L21.55 9.22L21.55 9.22Q21.01 9.74 20.78 10.54L20.78 10.54L20.78 10.54Q20.54 11.34 20.54 12.18L20.54 12.18L20.54 12.18Q20.54 13.40 20.90 14.61L20.90 14.61L20.90 14.61Q21.25 15.82 22.02 16.63L22.02 16.63L22.02 16.63Q22.78 17.44 23.94 17.44L23.94 17.44L23.94 17.44Q24.77 17.44 25.31 16.91L25.31 16.91L25.31 16.91Q25.84 16.37 26.08 15.56L26.08 15.56L26.08 15.56Q26.32 14.76 26.32 13.93L26.32 13.93L26.32 13.93Q26.32 12.75 25.96 11.54L25.96 11.54L25.96 11.54Q25.61 10.33 24.84 9.51L24.84 9.51L24.84 9.51Q24.08 8.69 22.93 8.69L22.93 8.69ZM33.82 7.91L33.82 7.91Q35.63 7.91 36.57 8.90L36.57 8.90L36.57 8.90Q37.51 9.90 37.51 11.62L37.51 11.62L37.51 11.62Q37.51 13.47 36.33 14.95L36.33 14.95L36.33 14.95Q35.15 16.44 33.34 17.30L33.34 17.30L33.34 17.30Q31.53 18.16 29.68 18.27L29.68 18.27L29.68 10.43L31.42 9.86L31.42 17.39L31.42 17.39Q32.66 17.01 33.61 16.21L33.61 16.21L33.61 16.21Q34.57 15.40 35.11 14.28L35.11 14.28L35.11 14.28Q35.64 13.16 35.64 11.84L35.64 11.84L35.64 11.84Q35.64 10.46 34.95 9.63L34.95 9.63L34.95 9.63Q34.26 8.81 33.04 8.81L33.04 8.81L33.04 8.81Q32.07 8.81 31.03 9.26L31.03 9.26L31.03 9.26Q29.99 9.72 29.15 10.43L29.15 10.43L28.80 10.02L28.80 10.02Q29.69 9.14 31.08 8.53L31.08 8.53L31.08 8.53Q32.47 7.91 33.82 7.91L33.82 7.91ZM40.77 7.83L40.77 17.78L39.02 18.34L39.02 8.37L40.77 7.83ZM46.48 9.55L46.48 9.55Q46.21 9.90 46.09 10.20L46.09 10.20L46.09 10.20Q45.96 10.50 45.96 10.91L45.96 10.91L45.96 12.89L46.90 12.89L46.90 12.89Q48.12 12.89 48.87 12.32L48.87 12.32L49.11 12.57L49.11 12.57Q48.31 13.80 46.54 13.80L46.54 13.80L45.96 13.80L45.96 16.46L45.96 16.46Q45.96 17.44 45.52 18.14L45.52 18.14L45.52 18.14Q45.08 18.83 44.17 19.40L44.17 19.40L43.88 19.07L43.88 19.07Q44.23 18.69 44.23 17.71L44.23 17.71L44.23 13.80L42.95 13.80L43.65 12.89L44.23 12.89L44.23 11.72L44.23 11.72Q44.23 10.71 45.54 9.55L45.54 9.55L43.62 9.53L43.62 9.53Q42.73 9.53 42.00 10.39L42.00 10.39L41.71 10.09L41.71 10.09Q42.35 9.23 43.04 8.72L43.04 8.72L43.04 8.72Q43.74 8.22 44.63 8.22L44.63 8.22L47.98 8.22L47.98 8.22Q48.65 8.22 49.34 8.10L49.34 8.10L49.34 8.10Q50.02 7.98 50.39 7.67L50.39 7.67L50.60 7.92L50.60 7.92Q50.15 8.61 49.36 9.08L49.36 9.08L49.36 9.08Q48.58 9.55 47.64 9.55L47.64 9.55L46.48 9.55ZM54.67 9.55L54.67 9.55Q54.40 9.90 54.28 10.20L54.28 10.20L54.28 10.20Q54.15 10.50 54.15 10.91L54.15 10.91L54.15 12.89L55.09 12.89L55.09 12.89Q56.31 12.89 57.06 12.32L57.06 12.32L57.30 12.57L57.30 12.57Q56.50 13.80 54.73 13.80L54.73 13.80L54.15 13.80L54.15 16.46L54.15 16.46Q54.15 17.44 53.71 18.14L53.71 18.14L53.71 18.14Q53.27 18.83 52.36 19.40L52.36 19.40L52.07 19.07L52.07 19.07Q52.42 18.69 52.42 17.71L52.42 17.71L52.42 13.80L51.14 13.80L51.84 12.89L52.42 12.89L52.42 11.72L52.42 11.72Q52.42 10.71 53.73 9.55L53.73 9.55L51.81 9.53L51.81 9.53Q50.92 9.53 50.19 10.39L50.19 10.39L49.90 10.09L49.90 10.09Q50.54 9.23 51.23 8.72L51.23 8.72L51.23 8.72Q51.93 8.22 52.82 8.22L52.82 8.22L56.17 8.22L56.17 8.22Q56.84 8.22 57.53 8.10L57.53 8.10L57.53 8.10Q58.21 7.98 58.58 7.67L58.58 7.67L58.79 7.92L58.79 7.92Q58.34 8.61 57.55 9.08L57.55 9.08L57.55 9.08Q56.77 9.55 55.83 9.55L55.83 9.55L54.67 9.55ZM61.17 7.83L61.17 17.78L59.42 18.34L59.42 8.37L61.17 7.83ZM63.43 8.37L65.18 7.80L65.18 10.25L65.18 10.25Q65.98 7.87 67.98 7.87L67.98 7.87L67.98 7.87Q68.87 7.87 69.33 8.45L69.33 8.45L69.33 8.45Q69.79 9.03 69.79 9.88L69.79 9.88L69.79 16.67L69.79 16.67Q69.79 16.97 69.92 17.16L69.92 17.16L69.92 17.16Q70.04 17.35 70.29 17.35L70.29 17.35L70.29 17.35Q70.52 17.35 70.73 17.21L70.73 17.21L70.73 17.21Q70.95 17.08 71.11 16.87L71.11 16.87L71.41 17.15L71.41 17.15Q71.12 17.63 70.69 17.91L70.69 17.91L70.69 17.91Q70.25 18.19 69.61 18.19L69.61 18.19L69.61 18.19Q68.87 18.19 68.45 17.72L68.45 17.72L68.45 17.72Q68.04 17.26 68.04 16.32L68.04 16.32L68.04 10.35L68.04 10.35Q68.04 9.60 67.90 9.14L67.90 9.14L67.90 9.14Q67.76 8.67 67.24 8.67L67.24 8.67L67.24 8.67Q66.57 8.67 66.11 9.39L66.11 9.39L66.11 9.39Q65.65 10.12 65.42 11.09L65.42 11.09L65.42 11.09Q65.18 12.05 65.18 12.70L65.18 12.70L65.18 17.74L63.43 18.33L63.43 8.37Z"></path></g><!----><!----></svg>